<?xml version="1.0" encoding="utf-8"?>
<!-- Generator: Adobe Illustrator 25.0.1, SVG Export Plug-In . SVG Version: 6.00 Build 0)  -->
<svg version="1.0" id="katman_1" xmlns="http://www.w3.org/2000/svg" xmlns:xlink="http://www.w3.org/1999/xlink" x="0px" y="0px"
	 viewBox="0 0 560 400" style="enable-background:new 0 0 560 400;" xml:space="preserve">
<style type="text/css">
	.st0{fill:#FFFFFF;}
</style>
<g>
	<g>
		<path class="st0" d="M414.6,268.4c-1.2-3.9-6.8-6.6-6.8-6.6l0,0c-0.5-0.3-1-0.5-1.4-0.7c-9.4-4.5-17.7-10-24.7-16.2
			c-5.6-5-10.4-10.5-14.3-16.3c-4.7-7.1-6.9-13.1-7.9-16.3c-0.5-2.1-0.4-2.9,0-4c0.4-0.9,1.5-1.8,2-2.2c3.2-2.2,8.3-5.5,11.4-7.6
			c2.7-1.8,5-3.3,6.4-4.2c4.4-3.1,7.4-6.2,9.2-9.6c2.3-4.4,2.6-9.2,0.8-13.9c-2.4-6.4-8.4-10.2-16-10.2c-1.7,0-3.4,0.2-5.2,0.6
			c-4.3,1-8.5,2.5-11.9,3.8c-0.3,0.1-0.5-0.1-0.5-0.4c0.4-8.5,0.8-20-0.2-30.9c-0.8-9.9-2.9-18.2-6.2-25.4
			c-3.3-7.3-7.7-12.7-11.1-16.6c-3.2-3.7-8.9-9.2-17.5-14.1c-12-6.9-25.8-10.4-40.8-10.4c-15,0-28.7,3.5-40.8,10.4
			c-9.1,5.2-14.9,11-17.5,14.1c-3.4,3.9-7.7,9.3-11.1,16.6c-3.3,7.3-5.3,15.5-6.2,25.4c-1,11-0.6,21.5-0.2,30.9
			c0,0.3-0.3,0.5-0.5,0.4c-3.4-1.3-7.6-2.9-11.9-3.8c-1.7-0.4-3.4-0.6-5.2-0.6c-7.6,0-13.5,3.8-16,10.2c-1.8,4.7-1.5,9.6,0.8,13.9
			c1.8,3.4,4.8,6.5,9.2,9.6c1.3,1,3.7,2.5,6.4,4.2c3.1,2,8,5.2,11.2,7.4c0.4,0.3,1.7,1.3,2.2,2.4c0.4,1.1,0.5,2-0.1,4.2
			c-1,3.2-3.2,9.1-7.8,16.1c-3.9,5.9-8.7,11.3-14.3,16.3c-7,6.2-15.3,11.7-24.7,16.2c-0.4,0.2-1,0.5-1.5,0.8l0,0
			c0,0-5.6,2.9-6.7,6.6c-1.6,5.5,2.6,10.6,6.8,13.3c6.9,4.5,15.4,6.9,20.3,8.2c1.4,0.4,2.6,0.7,3.7,1c0.7,0.2,2.5,0.9,3.2,1.9
			c1,1.2,1.1,2.7,1.4,4.5l0,0c0.5,2.9,1.7,6.4,5.3,8.9c3.9,2.7,8.9,2.9,15.2,3.1c6.6,0.3,14.8,0.6,24.1,3.7
			c4.3,1.4,8.3,3.9,12.8,6.7c9.5,5.9,21.4,13.1,41.6,13.1c20.2,0,32.2-7.3,41.8-13.2c4.5-2.8,8.4-5.2,12.7-6.6
			c9.4-3.1,17.6-3.4,24.1-3.7c6.3-0.3,11.3-0.4,15.2-3.1c3.8-2.6,4.9-6.6,5.4-9.5c0.3-1.5,0.4-2.8,1.3-3.8c0.7-0.9,2.4-1.6,3.1-1.8
			c1.1-0.4,2.4-0.7,3.9-1.1c4.9-1.3,11.1-2.9,18.5-7.1C414.9,277.8,415.5,271.5,414.6,268.4z"/>
	</g>
	<path d="M422.4,265.4c-2-5.4-5.8-8.3-10.1-10.7c-0.8-0.5-1.6-0.9-2.2-1.1c-1.3-0.7-2.6-1.3-3.9-2c-13.5-7.1-24-16.2-31.3-26.8
		c-2.5-3.6-4.2-6.9-5.4-9.5c-0.6-1.8-0.6-2.8-0.1-3.7c0.3-0.7,1.2-1.4,1.7-1.8c2.3-1.5,4.7-3.1,6.3-4.1c2.9-1.9,5.2-3.4,6.6-4.4
		c5.5-3.9,9.4-8,11.8-12.6c3.4-6.5,3.8-13.9,1.2-20.8c-3.6-9.6-12.8-15.6-23.8-15.6c-2.3,0-4.6,0.3-6.9,0.8
		c-0.6,0.1-1.2,0.3-1.8,0.4c0.1-6.6-0.1-13.6-0.6-20.4c-2.1-24.1-10.5-36.7-19.3-46.8c-3.7-4.2-10.1-10.3-19.6-15.8
		c-13.4-7.7-28.5-11.5-45-11.5c-16.4,0-31.6,3.9-44.9,11.5c-9.6,5.5-16,11.7-19.7,15.8c-8.8,10.1-17.2,22.7-19.3,46.8
		c-0.6,6.8-0.7,13.8-0.6,20.4c-0.6-0.1-1.2-0.3-1.8-0.4c-2.3-0.5-4.6-0.8-6.9-0.8c-11,0-20.2,6-23.8,15.6
		c-2.6,6.9-2.2,14.3,1.2,20.8c2.4,4.6,6.3,8.7,11.8,12.6c1.5,1,3.8,2.5,6.6,4.4c1.6,1,3.8,2.5,6.1,4c0.3,0.2,1.5,1.1,2,2
		c0.5,1,0.5,2-0.2,3.9c-1.2,2.6-2.9,5.8-5.3,9.3c-7.1,10.4-17.4,19.3-30.4,26.4c-6.9,3.7-14.1,6.1-17.1,14.3
		c-2.3,6.2-0.8,13.3,5,19.3l0,0c1.9,2,4.3,3.9,7.3,5.5c7.1,3.9,13.2,5.9,17.9,7.2c0.8,0.3,2.8,0.9,3.6,1.6c2.1,1.8,1.8,4.6,4.6,8.7
		c1.7,2.5,3.7,4.3,5.3,5.4c5.9,4.1,12.6,4.3,19.6,4.6c6.4,0.3,13.6,0.5,21.8,3.2c3.4,1.1,7,3.3,11.1,5.8c9.9,6.1,23.4,14.4,46,14.4
		c22.6,0,36.2-8.3,46.2-14.4c4.1-2.5,7.6-4.7,10.9-5.8c8.2-2.7,15.5-3,21.8-3.2c7.1-0.3,13.7-0.5,19.6-4.6c1.8-1.3,4.2-3.4,6-6.6
		c2-3.4,2-5.9,3.9-7.5c0.8-0.7,2.5-1.3,3.4-1.5c4.8-1.3,10.9-3.2,18.2-7.3c3.2-1.8,5.7-3.7,7.7-5.9c0,0,0.1-0.1,0.1-0.1
		C423.2,278.3,424.6,271.5,422.4,265.4z M402.3,276.2c-12.3,6.8-20.4,6-26.7,10.1c-5.4,3.5-2.2,11-6.1,13.6
		c-4.8,3.3-19-0.2-37.4,5.8c-15.1,5-24.8,19.4-52,19.4c-27.3,0-36.7-14.3-52-19.4c-18.3-6-32.6-2.5-37.4-5.8
		c-3.9-2.7-0.7-10.2-6.1-13.6c-6.3-4.1-14.5-3.4-26.7-10.1c-7.8-4.3-3.4-7-0.8-8.2c44.4-21.5,51.5-54.7,51.8-57.2
		c0.4-3,0.8-5.3-2.5-8.4c-3.2-2.9-17.3-11.7-21.1-14.4c-6.5-4.5-9.3-9-7.2-14.6c1.5-3.8,5-5.3,8.8-5.3c1.2,0,2.4,0.1,3.5,0.4
		c7.1,1.5,14,5.1,18,6c0.6,0.1,1,0.2,1.5,0.2c2.1,0,2.9-1.1,2.7-3.5c-0.4-7.8-1.6-22.9-0.3-37c1.7-19.4,8-29.1,15.4-37.6
		c3.6-4.1,20.4-21.8,52.5-21.8c32.2,0,48.9,17.8,52.5,21.8c7.5,8.5,13.7,18.1,15.4,37.6c1.2,14.1,0.2,29.3-0.3,37
		c-0.2,2.5,0.6,3.5,2.7,3.5c0.4,0,0.9-0.1,1.5-0.2c4-1,10.9-4.5,18-6c1.1-0.3,2.4-0.4,3.5-0.4c3.8,0,7.4,1.5,8.8,5.3
		c2.1,5.5-0.8,10.1-7.2,14.6c-3.9,2.7-18,11.4-21.1,14.4c-3.3,3-2.9,5.4-2.5,8.4c0.3,2.5,7.4,35.7,51.8,57.2
		C405.6,269.2,410.1,271.9,402.3,276.2z"/>
</g>
</svg>
